<?xml version="1.0" encoding="UTF-8"?>
<svg width="36px" height="36px" viewBox="0 0 36 36" version="1.1" xmlns="http://www.w3.org/2000/svg" xmlns:xlink="http://www.w3.org/1999/xlink">
    <!-- Generator: Sketch 48.2 (47327) - http://www.bohemiancoding.com/sketch -->
    <title>Close White</title>
    <desc>Created with Sketch.</desc>
    <defs></defs>
    <g id="Sounds-Dark-Tablet" stroke="none" stroke-width="1" fill="none" fill-rule="evenodd" transform="translate(-494.000000, -85.000000)">
        <g id="Close-White" transform="translate(494.000000, 85.000000)" fill="#8D99B2">
            <path d="M18,0 C8.07492857,0 0,8.07492857 0,18 C0,27.9250714 8.07492857,36 18,36 C27.9250714,36 36,27.9250714 36,18 C36,8.07492857 27.9250714,0 18,0 Z M18,34.7142857 C8.78335714,34.7142857 1.28571429,27.216 1.28571429,18 C1.28571429,8.784 8.78335714,1.28571429 18,1.28571429 C27.2166429,1.28571429 34.7142857,8.784 34.7142857,18 C34.7142857,27.216 27.2166429,34.7142857 18,34.7142857 Z" id="Shape"></path>
            <path d="M25.7142857,17.3571429 L10.2857143,17.3571429 C9.93021429,17.3571429 9.64285714,17.6451429 9.64285714,18 C9.64285714,18.3548571 9.93021429,18.6428571 10.2857143,18.6428571 L25.7142857,18.6428571 C26.0697857,18.6428571 26.3571429,18.3548571 26.3571429,18 C26.3571429,17.6451429 26.0697857,17.3571429 25.7142857,17.3571429 Z" id="Shape" transform="translate(18.000000, 18.000000) rotate(-45.000000) translate(-18.000000, -18.000000) "></path>
            <path d="M25.7142857,17.3571429 L10.2857143,17.3571429 C9.93021429,17.3571429 9.64285714,17.6451429 9.64285714,18 C9.64285714,18.3548571 9.93021429,18.6428571 10.2857143,18.6428571 L25.7142857,18.6428571 C26.0697857,18.6428571 26.3571429,18.3548571 26.3571429,18 C26.3571429,17.6451429 26.0697857,17.3571429 25.7142857,17.3571429 Z" id="Shape" transform="translate(18.000000, 18.000000) rotate(45.000000) translate(-18.000000, -18.000000) "></path>
        </g>
    </g>
</svg>