<?xml version="1.0" encoding="UTF-8"?>
<svg width="13px" height="8px" viewBox="0 0 13 8" version="1.1" xmlns="http://www.w3.org/2000/svg" xmlns:xlink="http://www.w3.org/1999/xlink">
    <!-- Generator: Sketch 48.2 (47327) - http://www.bohemiancoding.com/sketch -->
    <title>Dropdown Caret</title>
    <desc>Created with Sketch.</desc>
    <defs></defs>
    <g id="Play-Dark-Tablet" stroke="none" stroke-width="1" fill="none" fill-rule="evenodd" transform="translate(-911.000000, -82.000000)">
        <g id="Sound-Control" transform="translate(693.000000, 64.000000)" fill="#8D99B2">
            <path d="M221.652,16.152 L221.652,23.8836923 C221.652,24.0674585 221.393952,24.216 221.076,24.216 C220.758048,24.216 220.5,24.0674585 220.5,23.8836923 L220.5,15.9083077 C220.5,15.8727099 220.509683,15.8384339 220.527609,15.8063034 C220.509848,15.7357619 220.5,15.6578667 220.5,15.576 C220.5,15.258048 220.648542,15 220.832308,15 L228.807692,15 C228.991458,15 229.14,15.258048 229.14,15.576 C229.14,15.893952 228.991458,16.152 228.807692,16.152 L221.652,16.152 Z" id="Dropdown-Caret" transform="translate(224.820000, 19.608000) rotate(-135.000000) translate(-224.820000, -19.608000) "></path>
        </g>
    </g>
</svg>